<svg viewBox="0 0 800 600" xmlns="http://www.w3.org/2000/svg">
  <!-- Фон -->
  <rect width="800" height="600" fill="#f9f9f9"/>
  
  <!-- Заголовок -->
  <text x="400" y="40" font-family="Arial, sans-serif" font-size="24" font-weight="bold" text-anchor="middle" fill="#333">План-схема обслуговування і планування кейтерингу в літаку</text>
  
  <!-- Літак (основний контур) -->
  <ellipse cx="400" cy="200" rx="350" ry="80" fill="#e6e6e6" stroke="#333" stroke-width="2"/>
  <rect x="50" y="200" width="700" height="80" fill="#e6e6e6" stroke="#333" stroke-width="2"/>
  <path d="M750 200 Q 780 240 750 280" fill="#e6e6e6" stroke="#333" stroke-width="2"/>
  <path d="M50 200 Q 20 240 50 280" fill="#e6e6e6" stroke="#333" stroke-width="2"/>
  
  <!-- Кухонні зони в літаку -->
  <rect x="100" y="210" width="60" height="60" fill="#ffcccc" stroke="#333" stroke-width="2"/>
  <text x="130" y="250" font-family="Arial, sans-serif" font-size="12" text-anchor="middle" fill="#333">Передня кухня</text>
  
  <rect x="370" y="210" width="60" height="60" fill="#ffcccc" stroke="#333" stroke-width="2"/>
  <text x="400" y="250" font-family="Arial, sans-serif" font-size="12" text-anchor="middle" fill="#333">Центральна кухня</text>
  
  <rect x="640" y="210" width="60" height="60" fill="#ffcccc" stroke="#333" stroke-width="2"/>
  <text x="670" y="250" font-family="Arial, sans-serif" font-size="12" text-anchor="middle" fill="#333">Задня кухня</text>
  
  <!-- Процес кейтерингу (в нижній частині) -->
  <rect x="80" y="350" width="640" height="200" rx="10" ry="10" fill="#eaf2f8" stroke="#333" stroke-width="2"/>
  
  <!-- Етапи процесу -->
  <!-- 1. Планування -->
  <rect x="100" y="370" width="120" height="60" rx="5" ry="5" fill="#aed6f1" stroke="#333" stroke-width="1"/>
  <text x="160" y="400" font-family="Arial, sans-serif" font-size="14" font-weight="bold" text-anchor="middle" fill="#333">1. Планування</text>
  <text x="160" y="420" font-family="Arial, sans-serif" font-size="10" text-anchor="middle" fill="#333">- Розробка меню</text>
  
  <!-- 2. Підготовка -->
  <rect x="240" y="370" width="120" height="60" rx="5" ry="5" fill="#d4efdf" stroke="#333" stroke-width="1"/>
  <text x="300" y="400" font-family="Arial, sans-serif" font-size="14" font-weight="bold" text-anchor="middle" fill="#333">2. Підготовка</text>
  <text x="300" y="420" font-family="Arial, sans-serif" font-size="10" text-anchor="middle" fill="#333">- Закупівля продуктів</text>
  
  <!-- 3. Приготування -->
  <rect x="380" y="370" width="120" height="60" rx="5" ry="5" fill="#fcf3cf" stroke="#333" stroke-width="1"/>
  <text x="440" y="400" font-family="Arial, sans-serif" font-size="14" font-weight="bold" text-anchor="middle" fill="#333">3. Приготування</text>
  <text x="440" y="420" font-family="Arial, sans-serif" font-size="10" text-anchor="middle" fill="#333">- Кухня на землі</text>
  
  <!-- 4. Доставка -->
  <rect x="520" y="370" width="120" height="60" rx="5" ry="5" fill="#f5cba7" stroke="#333" stroke-width="1"/>
  <text x="580" y="400" font-family="Arial, sans-serif" font-size="14" font-weight="bold" text-anchor="middle" fill="#333">4. Доставка</text>
  <text x="580" y="420" font-family="Arial, sans-serif" font-size="10" text-anchor="middle" fill="#333">- Завантаження в літак</text>
  
  <!-- Стрілки між етапами -->
  <line x1="220" y1="400" x2="240" y2="400" stroke="#333" stroke-width="2"/>
  <polygon points="238,395 248,400 238,405" fill="#333"/>
  
  <line x1="360" y1="400" x2="380" y2="400" stroke="#333" stroke-width="2"/>
  <polygon points="378,395 388,400 378,405" fill="#333"/>
  
  <line x1="500" y1="400" x2="520" y2="400" stroke="#333" stroke-width="2"/>
  <polygon points="518,395 528,400 518,405" fill="#333"/>
  
  <!-- Детальні процеси обслуговування -->
  <rect x="100" y="450" width="600" height="80" rx="5" ry="5" fill="#ebdef0" stroke="#333" stroke-width="1"/>
  <text x="400" y="470" font-family="Arial, sans-serif" font-size="14" font-weight="bold" text-anchor="middle" fill="#333">5. Обслуговування на борту</text>
  
  <!-- Обслуговування - деталі -->
  <text x="130" y="490" font-family="Arial, sans-serif" font-size="12" text-anchor="start" fill="#333">• Перший клас</text>
  <text x="130" y="510" font-family="Arial, sans-serif" font-size="12" text-anchor="start" fill="#333">• Бізнес клас</text>
  
  <text x="310" y="490" font-family="Arial, sans-serif" font-size="12" text-anchor="start" fill="#333">• Економ клас</text>
  <text x="310" y="510" font-family="Arial, sans-serif" font-size="12" text-anchor="start" fill="#333">• Спеціальні раціони</text>
  
  <text x="490" y="490" font-family="Arial, sans-serif" font-size="12" text-anchor="start" fill="#333">• Напої</text>
  <text x="490" y="510" font-family="Arial, sans-serif" font-size="12" text-anchor="start" fill="#333">• Прибирання</text>
  
  <!-- Легенда -->
  <rect x="650" y="500" width="15" height="15" fill="#ffcccc" stroke="#333" stroke-width="1"/>
  <text x="670" y="513" font-family="Arial, sans-serif" font-size="12" text-anchor="start" fill="#333">Кухонні зони</text>
</svg>
